<?xml version="1.0" encoding="UTF-8"?>
<svg id="Camada_1" data-name="Camada 1" xmlns="http://www.w3.org/2000/svg" viewBox="0 0 2000 2000">
  <defs>
    <style>

      .cls-1 {
        fill: none;
        stroke-width: 60px;
      }

      .cls-1, .cls-2 {
        stroke: #fff;
        stroke-miterlimit: 10;
      }

      .cls-3 {
        stroke-width: 0px;
      }

      .cls-3, .cls-2, .cls-4 {
        fill: #fff;
      }

      .cls-4 {
       font-family: Noto Sans, sans-serif;
        font-size: 176.57px;
        font-variation-settings: 'wght' 600;
        font-weight: 600;
      }
    </style>
  </defs>
  <text class="cls-4" transform="translate(606.46 478.64) rotate(-40.62) scale(.98 1)"><tspan x="0" y="0">M</tspan></text>
  <text class="cls-4" transform="translate(716.7 383.79) rotate(-26.05) scale(.98 1)"><tspan x="0" y="0">A</tspan></text>
  <text class="cls-4" transform="translate(814.91 332.68) rotate(-12.74) scale(.98 1)"><tspan x="0" y="0">N</tspan></text>
  <text class="cls-4" transform="translate(935.26 307.93) rotate(-4.24) scale(.98 1)"><tspan x="0" y="0">’</tspan></text>
  <text class="cls-4" transform="translate(962.98 303) rotate(2.69) scale(.98 1)"><tspan x="0" y="0">S</tspan></text>
  <text class="cls-4" transform="translate(1053.61 303.65) rotate(14.79) scale(.98 1)"><tspan x="0" y="0">H</tspan></text>
  <text class="cls-4" transform="translate(1171.15 331.91) rotate(28.97) scale(.98 1)"><tspan x="0" y="0">O</tspan></text>
  <text class="cls-4" transform="translate(1282.35 392.32) rotate(42.24) scale(.98 1)"><tspan x="0" y="0">P</tspan></text>
  <path class="cls-3" d="m1203.78,376.77s22,24,23,64h5.58s12.48-15,11.95-32c0,0,55.47,78-23.53,124,0,0,65,151,25,175,0,0-5,10,0,18s67,98,67,98c0,0,13,21-13,30,0,0-5,2-31,7v17s21.25,28.79-8.88,36.89v5.43s30.88,19.67-10.12,42.67c0,0,29,53-2,80s-134,4-134,4c0,0-5,49-38,66,0,0-14,68-5,100,0,0,8,50,41,93s60,128,60,128c0,0-84,102-304,63-220-39-196-353-196-353,0,0,110.81-122.11,120.91-202.56,10.09-80.44-50.91-171.44-50.91-171.44,0,0-48-89-31-193,0,0,10-41,21-50l-14,1s39-84,131-125c0,0,8.48-18,28.74-26,0,0-4.74,9,1.26,16h8s5-8,54-23c0,0,59-11,110,5,0,0,39,7,101,23s52-21,52-21Z"/>
  <g>
    <path class="cls-2" d="m986.13,1541h28.36s0,15.62,0,15.62c0,0,64.25,10.51,69.84,83.75,0,0-50.72.74-78.32-53.73,0,0-3.31-7.36-12.88,0,0,0-16.54,49.69-77.46,53.73,0,0,4.22-63.67,56.12-78.76l14.35-20.61Z"/>
    <path class="cls-3" d="m958.53,1643.31s-1.47,3.68-27.97,10.3c0,0,9.57,39.01,16.19,37.17,6.62-1.84,20.98-12.88,23.92-19.51l-12.14-27.97Z"/>
    <path class="cls-3" d="m973.62,1634.11s17.79-13.21,26.38-27.95c0,0,12.67,20.96,28.11,27.95,0,0,2.68,25.57-28.11,46.64,0,0-29.69-20.88-26.38-46.64Z"/>
    <path class="cls-3" d="m1042.03,1643.46s12.56,9.79,27.65,10.16c0,0-5.15,25.03-9.94,31.65s-8.1,2.58-8.1,2.58c0,0-13.46-2.94-23.47-17.11l13.86-27.28Z"/>
    <path class="cls-3" d="m962.21,1697.41s11.78-5.52,18.77-14.35c0,0,8.46,9.2,12.88,11.04s6.26,5.15,12.14.37,14.43-11.41,14.43-11.41c0,0,7.61,8.46,17.56,14.35,0,0-4.76,21.35-30.16,38.64,0,0-6.3,6.62-14.37,0-8.08-6.62-23.9-17.3-31.26-38.64Z"/>
  </g>
  <path class="cls-1" d="m836.49,1590.69c-192.48-65.37-330.98-247.61-330.98-462.19v-394c0-91.58,25.23-177.27,69.11-250.5"/>
  <path class="cls-1" d="m1398.17,461.65c52.62,77.89,83.34,171.78,83.34,272.85v394c0,214.58-138.5,396.81-330.98,462.19"/>
</svg>